<svg width="232" height="49" viewBox="0 0 232 49" fill="none" xmlns="http://www.w3.org/2000/svg">
<path d="M9.00012 16.4861L34 6.48608L38.0004 16.4861" stroke="url(#paint0_linear_52_856)" stroke-width="4" stroke-linecap="round" stroke-linejoin="round"/>
<path d="M4 16.4861H44V22.4861C41 22.4861 38 24.4861 38 27.9861C38 31.4861 41 34.4861 44 34.4861V40.4861H4V34.4861C7.00016 34.4861 10 32.4861 10 28.4861C10 24.4861 7 22.4861 4 22.4861V16.4861Z" fill="url(#paint1_linear_52_856)" stroke="url(#paint2_linear_52_856)" stroke-width="4" stroke-linecap="round" stroke-linejoin="round"/>
<path d="M17 25.8708H23" stroke="white" stroke-width="4" stroke-linecap="round"/>
<path d="M17 31.8708H31" stroke="white" stroke-width="4" stroke-linecap="round"/>
<path d="M63.0053 32.4861H58.4933V20.4621H52.8053V16.4061H68.6693V20.4621H63.0053V32.4861ZM74.2711 19.2861H69.7591V16.4061H74.2711V19.2861ZM74.2711 32.4861H69.7591V20.3901H74.2711V32.4861ZM82.5042 32.7261C78.2082 32.7261 75.4722 30.3501 75.4722 26.4381C75.4722 22.5021 78.2082 20.1501 82.5042 20.1501C86.6322 20.1501 89.2722 22.2621 89.2722 25.5021V25.8861H84.7842V25.6941C84.7842 24.4461 83.8722 24.1821 82.4082 24.1821C80.7522 24.1821 79.9602 24.5421 79.9602 26.4381C79.9602 28.3101 80.7522 28.6701 82.4082 28.6701C83.8722 28.6701 84.7842 28.4301 84.7842 27.1821V26.9661H89.2722V27.3741C89.2722 30.5901 86.6322 32.7261 82.5042 32.7261ZM94.9898 32.4861H90.4778V16.4061H94.9898V24.5901H97.1258L99.7898 20.3901H105.118L100.822 26.2701L105.046 32.4861H99.7178L97.1738 28.6221H94.9898V32.4861ZM112.339 32.7261C108.235 32.7261 105.355 30.9741 105.355 26.4381C105.355 22.5021 108.211 20.1501 112.243 20.1501C116.419 20.1501 119.083 22.2381 119.083 26.1261C119.083 26.5341 119.059 26.8461 119.011 27.2781H109.531C109.603 28.7421 110.251 29.1501 112.171 29.1501C113.995 29.1501 114.475 28.8381 114.475 28.1181V27.8541H118.987V28.1421C118.987 30.8301 116.419 32.7261 112.339 32.7261ZM112.147 23.6061C110.491 23.6061 109.795 23.9661 109.603 24.9981H114.715C114.547 23.9661 113.827 23.6061 112.147 23.6061ZM129.338 32.4861H126.17C123.146 32.4861 121.346 31.0221 121.346 27.8781V24.0861H119.57V20.3901H121.346V18.3021H125.858V20.3901H129.338V24.0861H125.858V27.2301C125.858 28.1901 126.146 28.4301 127.178 28.4301H129.338V32.4861ZM137.159 32.7261C133.055 32.7261 130.175 30.9741 130.175 26.4381C130.175 22.5021 133.031 20.1501 137.063 20.1501C141.239 20.1501 143.903 22.2381 143.903 26.1261C143.903 26.5341 143.879 26.8461 143.831 27.2781H134.351C134.423 28.7421 135.071 29.1501 136.991 29.1501C138.815 29.1501 139.295 28.8381 139.295 28.1181V27.8541H143.807V28.1421C143.807 30.8301 141.239 32.7261 137.159 32.7261ZM136.967 23.6061C135.311 23.6061 134.615 23.9661 134.423 24.9981H139.535C139.367 23.9661 138.647 23.6061 136.967 23.6061ZM149.599 32.4861H144.151L148.663 26.6301V26.3901L144.151 20.3901H149.671L152.143 24.0381H152.383L154.759 20.3901H160.207L155.695 26.3181V26.5581L160.207 32.4861H154.687L152.215 28.9341H151.975L149.599 32.4861ZM165.209 36.5661H160.697V20.3901H164.921V23.6541H165.161C165.545 21.2541 166.985 20.1501 169.817 20.1501C173.513 20.1501 175.553 22.5261 175.553 26.4381C175.553 30.3741 173.561 32.7261 170.009 32.7261C167.153 32.7261 165.809 31.3821 165.449 29.3661H165.209V36.5661ZM165.209 26.5821C165.209 28.2861 166.169 28.6221 168.185 28.6221C170.273 28.6221 170.993 28.0461 170.993 26.4381C170.993 24.8301 170.273 24.2781 168.185 24.2781C166.169 24.2781 165.209 24.6621 165.209 26.4141V26.5821ZM181.263 32.4861H176.751V20.3901H180.975V23.5581H181.215C181.551 21.5661 182.799 20.1501 185.199 20.1501C187.863 20.1501 188.919 21.9021 188.919 24.3261V26.7261H184.407V25.3101C184.407 24.3021 184.023 23.9421 182.847 23.9421C181.623 23.9421 181.263 24.3021 181.263 25.2621V32.4861ZM196.62 32.7261C192.516 32.7261 189.636 30.9741 189.636 26.4381C189.636 22.5021 192.492 20.1501 196.524 20.1501C200.7 20.1501 203.364 22.2381 203.364 26.1261C203.364 26.5341 203.34 26.8461 203.292 27.2781H193.812C193.884 28.7421 194.532 29.1501 196.452 29.1501C198.276 29.1501 198.756 28.8381 198.756 28.1181V27.8541H203.268V28.1421C203.268 30.8301 200.7 32.7261 196.62 32.7261ZM196.428 23.6061C194.772 23.6061 194.076 23.9661 193.884 24.9981H198.996C198.828 23.9661 198.108 23.6061 196.428 23.6061ZM211.076 32.7261C206.804 32.7261 204.524 31.0701 204.524 28.2861V28.1901H209.036V28.4301C209.036 29.1021 209.468 29.1741 211.1 29.1741C212.66 29.1741 212.9 29.0061 212.9 28.5981C212.9 28.2141 212.708 28.1181 211.58 27.9981L208.076 27.6141C205.58 27.3501 204.236 26.1741 204.236 24.1341C204.236 21.9981 205.94 20.1501 210.476 20.1501C214.676 20.1501 216.908 21.6621 216.908 24.6381V24.7341H212.396V24.5901C212.396 23.9661 212.156 23.6781 210.332 23.6781C208.868 23.6781 208.676 23.8701 208.676 24.3261C208.676 24.6621 208.868 24.8301 210.284 24.9741L212.684 25.2381C216.212 25.6221 217.34 26.7981 217.34 28.8381C217.34 31.0941 215.084 32.7261 211.076 32.7261ZM224.927 32.7261C220.655 32.7261 218.375 31.0701 218.375 28.2861V28.1901H222.887V28.4301C222.887 29.1021 223.319 29.1741 224.951 29.1741C226.511 29.1741 226.751 29.0061 226.751 28.5981C226.751 28.2141 226.559 28.1181 225.431 27.9981L221.927 27.6141C219.431 27.3501 218.087 26.1741 218.087 24.1341C218.087 21.9981 219.791 20.1501 224.327 20.1501C228.527 20.1501 230.759 21.6621 230.759 24.6381V24.7341H226.247V24.5901C226.247 23.9661 226.007 23.6781 224.183 23.6781C222.719 23.6781 222.527 23.8701 222.527 24.3261C222.527 24.6621 222.719 24.8301 224.135 24.9741L226.535 25.2381C230.063 25.6221 231.191 26.7981 231.191 28.8381C231.191 31.0941 228.935 32.7261 224.927 32.7261Z" fill="white"/>
<defs>
<linearGradient id="paint0_linear_52_856" x1="2.0796" y1="14.7169" x2="37.962" y2="15.9705" gradientUnits="userSpaceOnUse">
<stop stop-color="#2472FF"/>
<stop offset="0.889691" stop-color="#7E51DB"/>
</linearGradient>
<linearGradient id="paint1_linear_52_856" x1="-5.54546" y1="36.2399" x2="43.9874" y2="37.2345" gradientUnits="userSpaceOnUse">
<stop stop-color="#2472FF"/>
<stop offset="0.889691" stop-color="#7E51DB"/>
</linearGradient>
<linearGradient id="paint2_linear_52_856" x1="-5.54546" y1="36.2399" x2="43.9874" y2="37.2345" gradientUnits="userSpaceOnUse">
<stop stop-color="#2472FF"/>
<stop offset="0.889691" stop-color="#7E51DB"/>
</linearGradient>
</defs>
</svg>
